# xmcd
#
# Track frame offsets: 
#        150
#        15568
#        30201
#        41989
#        55395
#        69798
#        87649
#        103689
#        121554
#        145159
#        162281
#        180079
#        202564
#        228463
#        239755
#
# Disc length: 3405 seconds
#
# Revision: 0
# Processed by: cddbd v1.5.2PL0 Copyright (c) Steve Scherf et al.
# Submitted via: ExactAudioCopy v1.1
#
DISCID=b70d4b0f
DTITLE=Helmut Lotti - The Comeback Album
DYEAR=2017
DGENRE=Pop
TTITLE0=Faith, Hope And Love
TTITLE1=Sweet Love Of Mine
TTITLE2=Put A Little Love In Your Heart
TTITLE3=The Impossible Dream
TTITLE4=My Boy
TTITLE5=Hallelujah
TTITLE6=I've Got Confidence
TTITLE7=A Lonely Road
TTITLE8=Bridge Over Troubled Water
TTITLE9=Everybody Hurts
TTITLE10=Higher And Higher (Your Love Has Lifted Me)
TTITLE11=Insha'Allah
TTITLE12=Make-Believe
TTITLE13=You'll Never Walk Alone
TTITLE14=When A Child Is Born
EXTD=
EXTT0=
EXTT1=
EXTT2=
EXTT3=
EXTT4=
EXTT5=
EXTT6=
EXTT7=
EXTT8=
EXTT9=
EXTT10=
EXTT11=
EXTT12=
EXTT13=
EXTT14=
PLAYORDER=
